/* XPM */
static char *_c2f72dbd521481481ccef402ea73ac2[] = {
/* columns rows colors chars-per-pixel */
"32 32 256 2 ",
"   c #84C669",
".  c #84C769",
"X  c #81C267",
"o  c #7DBD64",
"O  c #4C6D39",
"+  c #405E32",
"@  c #455A2F",
"#  c #FDD82D",
"$  c #8F782F",
"%  c #83C468",
"&  c #B8AA52",
"*  c #85C76A",
"=  c #7AB45E",
"-  c #FDD727",
";  c #80C066",
":  c #75B05D",
">  c #FFEA14",
",  c #E7BF40",
"<  c #594208",
"1  c #F5C720",
"2  c #CE9710",
"3  c #E7D1AC",
"4  c #513716",
"5  c #EABB1A",
"6  c #FFE925",
"7  c #FAD00C",
"8  c #FFF11E",
"9  c #FFED24",
"0  c #FCD425",
"q  c #715509",
"w  c #F1D53D",
"e  c #FFF40C",
"r  c #FFF108",
"t  c #7BB861",
"y  c #7EBE65",
"u  c #3D552B",
"i  c #FDD711",
"p  c #D9A614",
"a  c #FEE22F",
"s  c #F1E165",
"d  c #F8CD27",
"f  c #F8DC4A",
"g  c #F9D796",
"h  c #C8900F",
"j  c #F9D226",
"k  c #F0C31D",
"l  c #765D12",
"z  c #F9CC14",
"x  c #FCD41C",
"c  c #FFEC2C",
"v  c #EACF7B",
"b  c #D7A744",
"n  c #FEE41D",
"m  c #FADE90",
"M  c #FEF37A",
"N  c #CE2726",
"B  c #ED8D13",
"V  c #D55051",
"C  c #FBDC61",
"Z  c #D85A5A",
"A  c #FFF51D",
"S  c #FEE00A",
"D  c #FCD30D",
"F  c #30401F",
"G  c #E1B61B",
"H  c #445C2F",
"J  c #FFDD2F",
"K  c #92863F",
"L  c #907D37",
"P  c #7DBC63",
"I  c #706829",
"U  c #EBC345",
"Y  c #4A5F2A",
"T  c #F4E7C7",
"R  c #7F6B19",
"E  c #EFD590",
"W  c #436333",
"Q  c #6A954B",
"!  c #44582C",
"~  c #577132",
"^  c #ECD8B3",
"/  c #F5C633",
"(  c #FCD117",
")  c #F1E1BF",
"_  c #FEDD19",
"`  c #E2AF2C",
"'  c #D7AA5E",
"]  c #BDA848",
"[  c #E5B10D",
"{  c #F7CA0F",
"}  c #FDE658",
"|  c #BBAD53",
" . c #F7E149",
".. c #F7D83D",
"X. c #FCDD6B",
"o. c #F8D881",
"O. c #F9D433",
"+. c #FEDA1B",
"@. c #F9BB25",
"#. c #F5B51B",
"$. c #FEF039",
"%. c #F0D438",
"&. c #F9DDB3",
"*. c #E5726C",
"=. c #F39690",
"-. c #F2A51A",
";. c #EE9A94",
":. c #ECA49F",
">. c #D7420C",
",. c #E48888",
"<. c #FFED08",
"1. c #ECBE16",
"2. c #D4A014",
"3. c #50753C",
"4. c #EFD04F",
"5. c #E3BB17",
"6. c #4D6932",
"7. c #947816",
"8. c #F1CB47",
"9. c #B7A13C",
"0. c #F5C40E",
"q. c #757126",
"w. c #F8DC18",
"e. c #5F7633",
"r. c #475929",
"t. c #EBD556",
"y. c #AC8B29",
"u. c #556E32",
"i. c #ECDAB9",
"p. c #343A17",
"a. c #575F29",
"s. c #A97F0E",
"d. c #FEE729",
"f. c #F1DB9D",
"g. c #C29152",
"h. c #AD9333",
"j. c #9E7F28",
"k. c #F2CA58",
"l. c #B28214",
"z. c #65510F",
"x. c #C8A839",
"c. c #E9D4B2",
"v. c #535C28",
"b. c #484F23",
"n. c #E5CDA5",
"m. c #E7B360",
"M. c #E1AF1C",
"N. c #FED933",
"B. c #E7CE9A",
"V. c #F4E6BB",
"C. c #C38C45",
"Z. c #7E7123",
"A. c #BFB75B",
"S. c #8A7542",
"D. c #EDC36C",
"F. c #E7C16A",
"G. c #EABB62",
"H. c #F1DBAD",
"J. c #E0C398",
"K. c #EEDE86",
"L. c #FEE11E",
"P. c #EFC52C",
"I. c #F8CC77",
"U. c #FAD759",
"Y. c #F1AF23",
"T. c #F9E57E",
"R. c #F8CF88",
"E. c #F4B474",
"W. c #F9D273",
"Q. c #E06F53",
"!. c #FCE7C0",
"~. c #FAD576",
"^. c #FFE640",
"/. c #FDE079",
"(. c #FEF282",
"). c #FFEE5D",
"_. c #FBCB44",
"`. c #F1AB56",
"'. c #DA5747",
"]. c #E47C60",
"[. c #F9BCB1",
"{. c #DE7272",
"}. c #F84F40",
"|. c #FF7C71",
" X c #DC5D18",
".X c #E36229",
"XX c #D03736",
"oX c #F8C2C2",
"OX c #E16B6B",
"+X c #EDACAB",
"@X c #DE6160",
"#X c #E69092",
"$X c #DEAB14",
"%X c #6EA457",
"&X c #6FA557",
"*X c #5A4308",
"=X c #F7EDD0",
"-X c #846E23",
";X c #5A7F40",
":X c #CAA629",
">X c #EAD14B",
",X c #73AB5A",
"<X c #DAC144",
"1X c #9A821B",
"2X c #F0DB60",
"3X c #77792D",
"4X c #CDA778",
"5X c #B38042",
"6X c #995828",
"7X c #EDAF3E",
"8X c #F3C033",
"9X c #938D47",
"0X c #777B34",
"qX c #EBC86B",
"wX c #FFDF28",
"eX c #938D48",
"rX c #9F6A3C",
"tX c #EDD6A7",
"yX c #EEBF57",
"uX c #846009",
"iX c #84550B",
"pX c #C9BE57",
"aX c #B99013",
"sX c #D79317",
"dX c #DAC35D",
"fX c #F3CE81",
"gX c #5A8043",
"hX c #BE7D31",
"jX c #EBC67F",
"kX c #B59B3D",
"lX c #EBC120",
"zX c #D09E4C",
"xX c #F6E15D",
"cX c #FBEE84",
"vX c #DAAD4C",
"bX c #F6BC40",
"nX c #E68C75",
"mX c #FAC653",
"MX c #FEF158",
"NX c #FEEB52",
"BX c #D94818",
"VX c #F09A1C",
"CX c #ED996F",
"ZX c #F6D3B6",
"AX c #FEF258",
"SX c #FDE964",
"DX c #EDA887",
"FX c #DA504C",
"GX c #FD8B27",
"HX c #F97771",
"JX c #C71819",
"KX c #EA926F",
"LX c #E04638",
"PX c #FF8581",
"IX c #D3380F",
"UX c #D65037",
/* pixels */
"                                                                ",
"                                                                ",
"            . . . . . . . . . . . . . . . . . . . .             ",
"  * * * * % y o o o o o o o o o o o o o o o o o o y % * * * *   ",
"% t : : = Q r.! @ @ @ @ @ @ @ @ @ @ @ @ @ @ ! ! u r.Q = : : t % ",
"= u p.b.I j.y.9.] | & & & & & & & & & & | | ] ] kXy.j.I b.p.u = ",
": F l :X<X>Xf  .f f w %.%.%.%.%.%.%.%... . .xXT.K.K.v dXx.l F : ",
"P ;X7.p j a c 9 > > > 9 $.AXM M M M MX$.8 8 $.cXV.) ) v b L gXP ",
". P v.7.# J a L.n c NXT./.C C C C SX).(.(.).^...o.H.^ B.S.v.P . ",
". y W R 5 N.# x f ~.CX*.'.IX>..X.XB -.@._.I.R.U.d / k.F.S.W y . ",
"  % = 3Xs.P.d - m ].N {.OXN Z #X;.LX}.GX@.`.nXm 0 { k l.0X= %   ",
"    % ~ q 2 [ O.&.V XXZ XXZ +XV :.=.oX|.|.[.=.!.N.7 d R 6.X     ",
"    X ~ q 2 [ O.&.V ,.{.JXV :.,.@XOXoXPX}.HX;.!.N.7 d l + X     ",
"    X u.q p { - o.Q.:.ZXDX].UXZ #X@X+X[.=.*.*.&.N.( 5 z.+ X     ",
"    X W q lX0 x f g E._.^.# -. XKX;.,.FXN N '.o.# 0 p *X+ X     ",
"    X + z.` ` M.5 X.m mXz n +.#.B  X>.>.BXQ.E.X.- 1 2.< + X     ",
"    X + 4 hXC.zXb vXv ~.bX#.Y.-.VXB B `.R./.} N.j M.2 < + X     ",
"    X + 4 C.m.D.G.' b U U.W.g g g g W.X.} d.n 0 5 2.h < + X     ",
"    X + 4 g.D.I.fXjX' b P.- # # # # - - _ > 6 j p 2 h < + X     ",
"    X + 4 5X' E H.3 J.J.v .._ +.x x +.wX6 8 9 j $X2 h < + X     ",
"    X 6.4 rX4X^ 3 3 c.3 n.E } c 6 c 9 8 A A > i 0.[ 2 < + X     ",
"    X ~ 4 6Xg.B.^ i.3 3 i.) m a 9 8 A e e e <.S D z p q u.%     ",
"    % e.iXsX` F.tXn.c.T =XT E 1 D S > <.r e r <._ - k l.q.&X%   ",
"  X Q Z.h { z Y.yXqXf.T V.f.k.@.z D i S <.r r 8 6 J # G l Y o . ",
". y Y uX5 i 7 0.z x 8.G.m.7X#.1 j 0 ( z 7 w.> 9 d.J k 5.s.q.t   ",
"% = Z.aXw.6 L.n d.a O./ 8X/ d d 1 k k 1.5 1.1 - J 0 G 5.G 1Xe.t ",
"= Y q h.A.A.pXt.s s s s 2Xt.8.U , , , , , , U 4.s 4.x.h.9.I F : ",
"t O u H + + a.R K eX9XK L $ $ $ $ $ $ $ $ $ $ L K -Xa.H H u O t ",
"  X ; ; ; ; ,X3.O O O O O O O O O O O O O O O O O 3.%X; ; ; X   ",
"                                                                ",
"                                                                ",
"                                                                "
};
