/* XPM */
static char *_a605bc5ff1347e5b8082080792c6ce3[] = {
/* columns rows colors chars-per-pixel */
"32 32 69 1 ",
"  c #CE5186",
". c #84C669",
"X c #85C86A",
"o c #85C76A",
"O c #577241",
"+ c #554237",
"@ c #6F383F",
"# c #733844",
"$ c #77B45F",
"% c #8D4255",
"& c #C0507D",
"* c #A94B6B",
"= c #9F4863",
"- c #623820",
"; c #CE5086",
": c #E7C79B",
"> c #CC5185",
", c #698D4A",
"< c #72AB5A",
"1 c #85C96A",
"2 c #ECCBA0",
"3 c #D5618B",
"4 c #ECBEA0",
"5 c #895930",
"6 c #744122",
"7 c #73A759",
"8 c #D0B287",
"9 c #5C4222",
"0 c #7BBA62",
"q c #627C43",
"w c #F9D9AC",
"e c #B18057",
"r c #81C367",
"t c #608348",
"y c #77B35E",
"u c #64653C",
"i c #76673D",
"p c #785230",
"a c #F5D4A7",
"s c #97562D",
"d c #6C924D",
"f c #AF8D6B",
"g c #8E4F27",
"h c #7E4623",
"j c #514D30",
"k c #4E3129",
"l c #8A4252",
"z c #7A3D48",
"x c #B14E71",
"c c #96485C",
"v c #693D20",
"b c #605B30",
"n c #894B26",
"m c #DC9992",
"M c #747146",
"N c #7EC066",
"B c #E5A19B",
"V c #DE7F94",
"C c #DDBC91",
"Z c #A65C30",
"A c #FFDEB1",
"S c #A2724A",
"D c #866037",
"F c #9A633B",
"G c #AA4B6C",
"H c #6F9E53",
"J c #827955",
"K c #BDA07A",
"L c #A18765",
/* pixels */
"......orN.ooXXXXXXXXoorN........",
".....oyqi,0y7777777<0<Midr......",
".....oqgZpuD55555555ibsZp<o.....",
".....XOhshnsSeeeeeeFs6hg9<X.....",
".....XO6FpDf:w222aa8Sp559<X.....",
"......qL:2:8wAaC:wA:822Cu<X.....",
".....otKww28:2::::288aw2J<X.....",
".....oqf::24444444444::8M<X.....",
"....o0ufBmV3333333333VBmitX.....",
"....oy+c&;;;;;;;;;;;;;>xzOX.....",
"....o$+%&              *#OX.....",
"....o$+%&              *#OX.....",
"....o$+%&              *#OX.....",
"....o$+%&              *#OX.....",
"....o$+%&              *#OX.....",
"....o$+%&              *#OX.....",
"....o$+%&              *#OX.....",
"....o$+%&              *#OX.....",
"....o$+%&              *#OX.....",
"....o$+%&              *#OX.....",
"....o$+%&              *#OX.....",
"....o$+%&              *#OX.....",
"....o$+%&              *#OX.....",
"....o$+%&              *#OX.....",
"....o$+%&              G#OX.....",
"....oy+lx>>>>>>>>>>>>>>=#OX.....",
"....o0jz%=============cl@tX.....",
".....oOk@@@@@@@@@@@@@@@@k<X.....",
".....XO-6v------------669<X.....",
".....XO6gvO,,,,,,,,,,j6n9<X.....",
".....Xq-6971111111111t96b0o.....",
".....o0qudr..........rHd$o......"
};
