/* XPM */
static char *f11a187b435e46f7928f260031739a0b[] = {
/* columns rows colors chars-per-pixel */
"32 32 6 1 ",
"  c #84C669",
". c #7EC065",
"X c #6FB05C",
"o c #84CA6F",
"O c #8AD67A",
"+ c #76B861",
/* pixels */
"                                ",
"    oooo  oooo                  ",
"   oOOOoooOOOoo                 ",
"   oOOOOooOOOOo                 ",
"   oOOOOooOOOOo                 ",
"    oooo  oooo                  ",
"   .+XX+..+XX+.                 ",
"   .XXXX++XXXX.                 ",
"    ...+XX+.+.                  ",
"       .XX. o                   ",
"        ..                      ",
"            ..  ..              ",
"           .XX..XX.             ",
"           .XX++XX.             ",
"            .+XX+.              ",
"             .XX.               ",
"              ..                ",
"                                ",
"                                ",
"                                ",
"                                ",
"                    oooo  oooo  ",
"                   oOOOO oOOOO  ",
"  ..  ..           oOOOOooOOOOo ",
" .XX..XX.          oOOOOooOOOOo ",
" .XX++XX.           oooo  oooo  ",
"  .+XX+.           .+XX+..+XX+. ",
"   .XX.            .XXXX++XXXX. ",
"    ..              ...+XX+.+.  ",
"                       .XX.     ",
"                        ..      ",
"                                "
};
