/* XPM */
static char *_b2ebd667b7e4714b1350fa70c8be4f7[] = {
/* columns rows colors chars-per-pixel */
"32 32 200 2 ",
"   c #84C669",
".  c #83C669",
"X  c #84C769",
"o  c #E5B534",
"O  c #E9BE9A",
"+  c #85C669",
"@  c #E6B63C",
"#  c #C84F84",
"$  c #F6ADBA",
"%  c #E9BE32",
"&  c #8BB46C",
"*  c #88C66C",
"=  c #CE5987",
"-  c #8EC663",
";  c #D4C08F",
":  c #E0B490",
">  c #DA6B8E",
",  c #8EC56E",
"<  c #A8587B",
"1  c #C04C82",
"2  c #D4628A",
"3  c #8AC86A",
"4  c #87C667",
"5  c #E2B27A",
"6  c #CD6179",
"7  c #86C36A",
"8  c #8BC06C",
"9  c #C84E85",
"0  c #B15E7C",
"q  c #E6B732",
"w  c #E6B997",
"e  c #E5AF97",
"r  c #E9BD99",
"t  c #A7C379",
"y  c #8DBC6D",
"u  c #9BC179",
"i  c #C75285",
"p  c #BDBC48",
"a  c #CC5586",
"s  c #A0CD6F",
"d  c #B3C44F",
"f  c #DCAE86",
"g  c #E8BC32",
"h  c #E4B796",
"j  c #96AE72",
"k  c #D29B8F",
"l  c #D9B838",
"z  c #94C571",
"x  c #BB5182",
"c  c #C36386",
"v  c #C65583",
"b  c #B0BC88",
"n  c #A9C755",
"m  c #E1B171",
"M  c #DCA43E",
"N  c #DC9192",
"B  c #9AC45C",
"V  c #DDBE93",
"C  c #C3BF86",
"Z  c #8EC76E",
"A  c #8AC566",
"S  c #99B370",
"D  c #97A071",
"F  c #D5AE8E",
"G  c #9E9C75",
"H  c #B29E7D",
"J  c #D7668C",
"K  c #A1C158",
"L  c #B75880",
"P  c #CB8B88",
"I  c #D16789",
"U  c #7C5E35",
"Y  c #E4912B",
"T  c #C4C146",
"R  c #E1BF36",
"E  c #E8DF7E",
"W  c #D87D8F",
"Q  c #95CA6D",
"!  c #CCC08A",
"~  c #DEC63A",
"^  c #95AA71",
"/  c #A88C7B",
"(  c #CAD879",
")  c #E6B295",
"_  c #E0A889",
"`  c #BECAA0",
"'  c #C75A89",
"]  c #BAC182",
"[  c #8DB76D",
"{  c #ACC052",
"}  c #A98578",
"|  c #BA637D",
" . c #CD978A",
".. c #84B561",
"X. c #DE708F",
"o. c #C25084",
"O. c #8FB36F",
"+. c #CCB93F",
"@. c #D26E88",
"#. c #9DBA61",
"$. c #82AE5D",
"%. c #C0D677",
"&. c #E1A094",
"*. c #F8E381",
"=. c #94C760",
"-. c #B2D274",
";. c #473735",
":. c #C2C747",
">. c #DEBA37",
",. c #BF9667",
"<. c #D0BB3E",
"1. c #7D6457",
"2. c #D7AB6B",
"3. c #CA9F65",
"4. c #B99159",
"5. c #E5BC3F",
"6. c #BE6C89",
"7. c #E8BD93",
"8. c #F8B0BD",
"9. c #A0AB75",
"0. c #E7BB7F",
"q. c #EBCAC7",
"w. c #F8BEC9",
"e. c #D3B5A0",
"r. c #ECB0B2",
"t. c #B2777B",
"y. c #D0CBB1",
"u. c #F2C3C8",
"i. c #DB9767",
"p. c #F8B4C0",
"a. c #88C76A",
"s. c #B36E7E",
"d. c #E2AE3F",
"f. c #C25A82",
"g. c #E18490",
"h. c #9CC77F",
"j. c #C67D85",
"k. c #DEA649",
"l. c #C6AD88",
"z. c #C28281",
"x. c #E5B02A",
"c. c #ACB37B",
"v. c #A07178",
"b. c #928973",
"n. c #D4728B",
"m. c #E17492",
"M. c #B58386",
"N. c #CBB79B",
"B. c #DEB3A8",
"V. c #93BA6F",
"C. c #D06087",
"Z. c #83BB64",
"A. c #7D673A",
"S. c #DEAB2F",
"D. c #7B502E",
"F. c #E1822C",
"G. c #E5642C",
"H. c #83BF65",
"J. c #B9BA8E",
"K. c #D3DA7B",
"L. c #E0DE7C",
"P. c #F4E27C",
"I. c #DBBD39",
"U. c #C9C744",
"Y. c #E2B352",
"T. c #9FA17B",
"R. c #8C7160",
"E. c #CDA485",
"W. c #69534A",
"Q. c #715A4F",
"!. c #584641",
"~. c #E7C433",
"^. c #CCC742",
"/. c #C27F7E",
"(. c #E7BFBB",
"). c #E5A992",
"_. c #E7BA7E",
"`. c #8FA861",
"'. c #F7B5C1",
"]. c #BC7577",
"[. c #E7B962",
"{. c #D6B390",
"}. c #B1C27E",
"|. c #B04D80",
" X c #A09474",
".X c #E18A6D",
"XX c #7C5530",
"oX c #AF577F",
"OX c #B7927F",
"+X c #D1BDA6",
"@X c #AD4F7F",
"#X c #E39782",
"$X c #81A156",
"%X c #C6B63E",
"&X c #906632",
"*X c #A1A649",
"=X c #7E7441",
"-X c #D1572B",
";X c #874E2B",
":X c #CC492B",
/* pixels */
"* * * . . + * * * *   X &  X^                       . .       + ",
"` y.` h.h.` y.+Xe.N.u X D v } y                   + Q Q a..   s ",
"(.w.u.q.q.u.w.p.$ $ e.u G v c T.X               a.Q K.E s a.+ Q ",
"$ $ 8.p.'.8.$ $ B.b c.M.6.i ' / j 8           + -.L.P.*.E ( 3 . ",
"$ $ $ $ $ r.r.N.u X O.c # # # v 6.j X         + s %.E *.( -.a.  ",
"$ $ $ $ e.u u , . 7 G f.9 9 9 9 ' / ^ 8 . .     . a.%.( Q . .   ",
"J.b b b u   .   - #.z.6 6 6 6 6 6 6 /.#.=.- +       a.a.+ - -   ",
"+ . . . .   + - :.~ 5.@ @ @ @ @ @ @ 5.~ ~ :.- 4 +   . A { l +.K ",
"          + n ^.R g g g g g g g g g g g g >.T U.n + B p S.Y Y S.",
"          4 T % q o o @ @ o o o o o @ @ o o q % d A p x.F.G.G.Y ",
"          n I.o o @ 2.4.,.m 5 5 5 m ,.4.d.o o l K + B %XF.:X-XY ",
"          d g o Y.m ,.;.W.: r r r F !.;.3.@ <.K 4     - *X;X&X#.",
"      . - T o d.m : E.Q.R.h O r O : 1.1.2.@ p +       X $.D.A.H.",
"      4 d R o M 5 r r h w O r r r r w w _.@ p + .       $XD.=XH.",
"    - d l o o M 5 r r r e &.h w h &.) O 0.@ <.n =.  X ..U U $.  ",
"  . B R q o o M 5 O r r e N W W W N ) O 0.@ g ~.d   X ..XXU Z.X ",
"  . B l o o o M 5 7.r O O w e e e w O 7.[.o o >.{   a...U A.Z.X ",
"    A { +.l o k.i.i.).) : : : : : : e _ k.+.p K - z C C `.$.7   ",
"      + A p d..XC.> g._ f f f f f _ g.X.].S 8 * t ; V ] Z X     ",
". .       c.#X@.i a 2 N k k k k k N I i c  .l.] V ; t *         ",
", ,   * t ; h M.@X1 # i x x x x x i 1 |.s.{.V C t z             ",
"! ; }.] V ; t [ b.v.L 9 9 # # # 9 x v.b.O., z , . .             ",
"t ! ; ; C z     y D 0 # a a # # o.oXG V.+ . .                   ",
"+ , , , * + 8 9.P @.C.a J > = = > C.n.P V.7 X X                 ",
"  . . . 8 H z.I 2 m.> i = X.> = J J 2 I j.OXS y                 ",
"  . y H P I # a > X.= # # 2 m.2 # a > > = = > H 8 7             ",
"  X j n.2 o.1 = J ' 1 1 1 = > = 1 1 o.v 2 = o.c j.9.X           ",
"  X j s.0 < < 0 c L < < < 0 | 0 < < oXL | 0 < 0 | D X           ",
"    7 [ & D } H F F S & & & & & & O.l.F S & & & [ 8             ",
"      X X / v  .; ! z X X X X X X , ; ; Z X X X X               ",
"          ^ } j , , +             8  .P G 7                     ",
"                . .             X y t.f.t.y X                   "
};
