/* XPM */
static char *_d8fc6e898da411a914a106150422436[] = {
/* columns rows colors chars-per-pixel */
"32 32 100 2 ",
"   c #84C669",
".  c #84C769",
"X  c #82C368",
"o  c #83C568",
"O  c #1E573E",
"+  c #5C8050",
"@  c #80BE66",
"#  c #4A6844",
"$  c #85C86A",
"%  c #70A05D",
"&  c #224D3D",
"*  c #81C167",
"=  c #476D46",
"-  c #7EBD65",
";  c #689458",
":  c #638D55",
">  c #296D49",
",  c #236040",
"<  c #F46FB9",
"1  c #FAA3C8",
"2  c #3D6041",
"3  c #446B47",
"4  c #74AB5F",
"5  c #3A5F41",
"6  c #7CB964",
"7  c #2B673A",
"8  c #2A5339",
"9  c #659256",
"0  c #752F60",
"q  c #8E5676",
"w  c #923574",
"e  c #A26E85",
"r  c #9C5880",
"t  c #C6679A",
"y  c #DF56A7",
"u  c #FDD0D6",
"i  c #F987C2",
"p  c #FCB3CD",
"a  c #679957",
"s  c #28874E",
"d  c #76B060",
"f  c #274132",
"g  c #648557",
"h  c #515D4D",
"j  c #6F535E",
"k  c #6D615D",
"l  c #4C5048",
"z  c #8B6476",
"x  c #B2989A",
"c  c #69465F",
"v  c #AB8790",
"b  c #563951",
"n  c #7D526B",
"m  c #C55797",
"M  c #A74380",
"N  c #F990C2",
"B  c #D38FAE",
"V  c #F1ABC5",
"C  c #AE5D8B",
"Z  c #EEA0C0",
"A  c #F47ABC",
"S  c #E044A3",
"D  c #FDC7D4",
"F  c #FDBDCE",
"G  c #EF5FB2",
"H  c #F995C4",
"J  c #4F784A",
"K  c #73A85E",
"L  c #77B261",
"P  c #2C9449",
"I  c #2F5841",
"U  c #287A43",
"Y  c #474842",
"T  c #2C914B",
"R  c #636958",
"E  c #596D50",
"W  c #5B5A54",
"Q  c #89817A",
"!  c #847B75",
"~  c #87436C",
"^  c #78746E",
"/  c #834269",
"(  c #374F4B",
")  c #B04D8A",
"_  c #936780",
"`  c #DC83A9",
"'  c #C496A8",
"]  c #9E4D80",
"[  c #F356B3",
"{  c #304843",
"}  c #A47D8C",
"|  c #865A75",
" . c #CD459C",
".. c #F2CBCC",
"X. c #DC73AF",
"o. c #C2ADB0",
"O. c #9A507F",
"+. c #F265B5",
"@. c #E3C6C6",
"#. c #FBAFCA",
/* pixels */
"                                                                ",
"                                                                ",
"                                                                ",
"                                                                ",
"                                                                ",
"                          . .   . .                             ",
"                        * d - X d 6                             ",
"                      o % h g % h g @ .                         ",
"                    . 4 R v k l x ! : o .                       ",
"                  . - E c ` n b B e l % -                       ",
"                  * : z t ) r C O.t e W + @                     ",
"                . % ^ _ M q X.G C M r x Q ; .                   ",
"                $ 9 z ' c | 1 i y w v ..} + .                   ",
"                $ 9 q V o.B H H S t @.F e + .                   ",
"                $ 9 q N u D i G y V u 1 ] + .                   ",
"                $ ; ~ < p u 1 +.Z F #.< w + .                   ",
"                . L k m N D 1 < p p A  .j K .                   ",
"                  . % j r Z i [ < A y / ; o                     ",
"                    a I ( n m S w 0 0 Y 6 .                     ",
"                . 4 3 > > & b 0 { & & 8 : o                     ",
"                $ 9 7 s P U & & , T s , # X                     ",
"                . 4 = , 7 8 O > f 7 O 8 : o                     ",
"                  o a # # # 5 , f # # + -                       ",
"                    o X X * = O 5 6 X X                         ",
"                        . o = O 2 @ .                           ",
"                          X = O 2 @ .                           ",
"                          X = O 2 @ .                           ",
"                          X = O 5 @ .                           ",
"                          o + > J *                             ",
"                            X * *                               ",
"                                                                ",
"                                                                "
};
